# xmcd
#
# Track frame offsets: 
#        150
#        4003
#        22826
#        43201
#        69079
#        89681
#        107840
#        128060
#        149481
#        169100
#        191420
#        213217
#        233096
#        235033
#        255608
#        275209
#        294316
#
# Disc length: 4189 seconds
#
# Revision: 0
# Processed by: cddbd v1.5.1PL0 Copyright (c) Steve Scherf et al.
# Submitted via: ExactAudioCopy v0.95a2
#
DISCID=ec105b11
DTITLE=Brandy - Full Moon
DYEAR=2002
DGENRE=R&B
TTITLE0=B Rocka Intro
TTITLE1=Full Moon
TTITLE2=I Thought
TTITLE3=When You Touch Me
TTITLE4=Like This
TTITLE5=All In Me
TTITLE6=Apart
TTITLE7=Can we
TTITLE8=What About Us
TTITLE9=Anybody
TTITLE10=Nothing
TTITLE11=It's Not Worth It
TTITLE12=He Is
TTITLE13=Come A Little Closer
TTITLE14=Love Wouldn't Count Me Out
TTITLE15=Wow
TTITLE16=Another Day In Paradise (ft Ray J)
EXTD=
EXTT0=
EXTT1=
EXTT2=
EXTT3=
EXTT4=
EXTT5=
EXTT6=
EXTT7=
EXTT8=
EXTT9=
EXTT10=
EXTT11=
EXTT12=
EXTT13=
EXTT14=
EXTT15=
EXTT16=
PLAYORDER=
